<?xml version="1.0" standalone="no"?>
<!DOCTYPE svg PUBLIC "-//W3C//DTD SVG 20010904//EN"
 "http://www.w3.org/TR/2001/REC-SVG-20010904/DTD/svg10.dtd">
<svg version="1.0" xmlns="http://www.w3.org/2000/svg"
 width="512.000000pt" height="512.000000pt" viewBox="0 0 512.000000 512.000000"
 preserveAspectRatio="xMidYMid meet">
<metadata>
Created by potrace 1.11, written by Peter Selinger 2001-2013
</metadata>
<g transform="translate(0.000000,512.000000) scale(0.100000,-0.100000)"
fill="#000000" stroke="none">
<path d="M2344 5109 c-1188 -91 -2161 -1008 -2329 -2194 -20 -137 -20 -574 0
-713 104 -731 516 -1378 1135 -1785 122 -80 382 -210 524 -262 612 -225 1324
-197 1926 75 350 158 692 420 930 714 299 369 500 846 555 1312 19 165 19 443
0 608 -73 620 -389 1218 -859 1624 -527 455 -1192 675 -1882 621z m-664 -1131
c72 -49 75 -59 78 -269 l3 -189 183 0 c173 0 185 -1 216 -22 57 -39 75 -72 75
-138 0 -63 -16 -95 -69 -134 -25 -19 -44 -21 -216 -24 l-189 -3 -3 -189 c-3
-206 -6 -215 -72 -264 -39 -29 -133 -29 -172 0 -66 49 -69 58 -72 264 l-3 189
-189 3 c-173 3 -191 5 -217 24 -100 75 -98 201 6 271 32 22 43 23 217 23 l184
0 0 184 c0 174 1 185 23 217 53 78 148 103 217 57z m2387 -474 c57 -28 88 -78
88 -143 0 -69 -29 -115 -89 -142 -38 -17 -75 -19 -546 -19 -471 0 -508 2 -546
19 -95 43 -123 163 -57 242 50 59 41 58 601 59 456 0 518 -2 549 -16z m-466
-1207 c104 -70 106 -197 6 -271 -21 -16 -43 -21 -87 -21 -66 0 -99 18 -137 75
-67 97 15 240 137 240 32 0 58 -7 81 -23z m-2368 -118 c12 -6 100 -88 194
-182 l173 -172 177 177 c113 112 188 179 206 183 43 11 112 0 145 -23 54 -39
80 -138 51 -195 -6 -12 -88 -100 -182 -194 l-172 -173 177 -177 c112 -113 179
-188 183 -206 11 -43 0 -112 -23 -145 -39 -54 -138 -80 -195 -51 -12 6 -100
88 -194 182 l-173 172 -172 -172 c-95 -94 -183 -176 -195 -182 -57 -29 -156
-3 -195 51 -23 33 -34 102 -23 145 4 18 71 93 183 206 l176 177 -176 178
c-112 112 -179 187 -183 205 -19 76 15 160 77 190 38 19 110 22 141 6z m2848
-362 c104 -70 106 -197 6 -271 -28 -21 -36 -21 -567 -21 -531 0 -539 0 -567
21 -100 74 -98 201 6 271 l34 23 527 0 527 0 34 -23z m-480 -480 c104 -70 106
-197 6 -271 -21 -16 -43 -21 -87 -21 -66 0 -99 18 -137 75 -67 97 15 240 137
240 32 0 58 -7 81 -23z"/>
</g>
</svg>
